<?xml version="1.0" encoding="UTF-8"?>
<svg width="22px" height="23px" viewBox="0 0 22 23" version="1.1" xmlns="http://www.w3.org/2000/svg" xmlns:xlink="http://www.w3.org/1999/xlink">
    <!-- Generator: Sketch 53.2 (72643) - https://sketchapp.com -->
    <title>Path</title>
    <desc>Created with Sketch.</desc>
    <g id="Page-1" stroke="none" stroke-width="1" fill="none" fill-rule="evenodd">
        <g id="heidelberg_search-changes" transform="translate(-1024.000000, -226.000000)" fill="#979797" fill-rule="nonzero">
            <g id="Group-3" transform="translate(763.000000, 194.500000)">
                <g id="Group-2" transform="translate(0.000000, 20.000000)">
                    <path d="M269.513,25.786 C270.499005,25.786 271.407663,25.5395025 272.239,25.0465 C273.070337,24.5534975 273.727664,23.8913375 274.211,23.06 C274.694336,22.2286625 274.936,21.3200049 274.936,20.334 C274.936,19.3479951 274.694336,18.4393375 274.211,17.608 C273.727664,16.7766625 273.070337,16.1193357 272.239,15.636 C271.407663,15.1526642 270.499005,14.911 269.513,14.911 C268.526995,14.911 267.618337,15.1526642 266.787,15.636 C265.955663,16.1193357 265.293502,16.7766625 264.8005,17.608 C264.307498,18.4393375 264.061,19.3479951 264.061,20.334 C264.061,21.3200049 264.307498,22.2286625 264.8005,23.06 C265.293502,23.8913375 265.955663,24.5534975 266.787,25.0465 C267.618337,25.5395025 268.526995,25.786 269.513,25.786 Z M276.763,25.786 L282.766,31.789 L280.939,33.616 L274.936,27.584 L274.936,26.627 L274.588,26.308 C273.91133,26.9073363 273.133171,27.3664984 272.2535,27.6855 C271.373829,28.0045016 270.460338,28.164 269.513,28.164 C268.082326,28.164 266.762839,27.8160035 265.5545,27.12 C264.346161,26.4239965 263.394003,25.4863392 262.698,24.307 C261.982663,23.0889939 261.625,21.7646738 261.625,20.334 C261.625,18.9033262 261.97783,17.5838394 262.6835,16.3755 C263.38917,15.1671606 264.346161,14.2150035 265.5545,13.519 C266.762839,12.8229965 268.082326,12.475 269.513,12.475 C270.943674,12.475 272.267994,12.8326631 273.486,13.548 C274.665339,14.2440035 275.598163,15.1913273 276.2845,16.39 C276.970837,17.5886727 277.314,18.9033262 277.314,20.334 C277.314,21.3006715 277.154502,22.2238289 276.8355,23.1035 C276.516498,23.9831711 276.057336,24.7613299 275.458,25.438 L275.777,25.786 L276.763,25.786 Z" id=""></path>
                </g>
            </g>
        </g>
    </g>
</svg>